<svg width="166" height="80" viewBox="0 0 166 80" fill="none" xmlns="http://www.w3.org/2000/svg">
<path d="M84.0638 0L77.1764 2.47241V38.4989L72.5848 36.9095V4.06181L58.8099 8.83003V31.9647L54.2183 30.3753V10.4194L49.6267 12.0088V33.7307L63.4015 38.4989V12.0088L67.9931 10.4194V40.0883L81.768 44.8565V5.65122L84.0638 4.76821L86.3596 5.65122V44.8565L99.9578 40.0883V10.4194L104.549 12.0088V38.4989L118.324 33.7307V12.0088L113.733 10.4194V30.3753L109.141 31.9647V8.83003L95.3662 4.06181V36.9095L90.9512 38.4989V2.47241L84.0638 0Z" fill="#ED1C24"/>
<path d="M0 61.8106V78.5876H15.011V76.4684H2.47241V70.9938H10.596V68.698H2.47241V63.9298H14.6578V61.8106H0Z" fill="black"/>
<path d="M66.7549 71.8768C66.7549 74.879 64.8123 76.8216 61.8101 76.8216C58.9845 76.8216 57.2185 74.879 57.2185 71.8768V61.8106H54.7461V72.0534C54.7461 76.645 58.1015 79.1174 61.8101 79.1174C67.4613 79.1174 69.2273 75.2322 69.2273 72.0534V61.8106H66.7549V71.8768V71.8768Z" fill="black"/>
<path d="M85.2983 61.8106H82.8259V78.7643H85.2983V61.8106Z" fill="black"/>
<path d="M114.083 75.0556L102.075 61.8106H99.7788V78.5876H102.251V65.3426L114.083 78.5876H116.556V61.8106H114.083V75.0556Z" fill="black"/>
<path d="M133.685 61.8106H131.213V78.7643H133.685V61.8106Z" fill="black"/>
<path d="M157.174 69.581L164.238 61.8106H161.236L155.585 67.815L150.287 61.8106H147.108L153.819 69.581L145.342 78.5876H148.521L155.408 71.1704L161.942 78.5876H165.298L157.174 69.581Z" fill="black"/>
<path d="M39.9133 70.2868C39.9133 72.7592 39.2069 74.172 37.7941 75.5848L36.5579 73.9954H33.7323L36.0281 76.6444C35.4983 76.9976 34.4387 77.1742 33.7323 77.1742C30.2003 77.1742 27.1981 74.3486 27.1981 70.2868C27.1981 66.225 29.8471 63.3994 33.5557 63.3994C37.0877 63.2228 39.9133 66.0484 39.9133 70.2868ZM33.3791 61.1036C28.4343 61.1036 24.5491 64.9888 24.5491 70.2868C24.5491 75.5848 28.4343 79.2934 33.5557 79.2934C34.7919 79.2934 36.3813 78.9402 37.4409 78.4104L38.8537 79.9998H41.6793L39.2069 77.1742C41.1495 75.5848 42.3857 73.1124 42.3857 70.1102C42.3857 64.8122 38.5005 61.1036 33.3791 61.1036Z" fill="black"/>
<path d="M126.444 27.9031V26.6669H127.327C127.857 26.6669 128.034 26.8435 128.034 27.1967C128.034 27.5499 127.857 27.7265 127.327 27.7265H126.444V27.9031ZM125.385 30.0223H126.444V28.6095H127.151L128.034 30.0223H129.27L128.21 28.4329C128.74 28.2563 129.093 27.7265 129.093 27.0201C129.093 25.9605 128.387 25.6073 127.327 25.6073H125.385V30.0223ZM127.151 31.7883C125.032 31.7883 123.442 30.1989 123.442 28.0797C123.442 26.1371 125.032 24.3711 127.151 24.3711C129.27 24.3711 130.859 25.9605 130.859 28.0797C130.859 30.0223 129.27 31.7883 127.151 31.7883ZM127.151 32.1415C129.447 32.1415 131.213 30.1989 131.213 28.0797C131.213 25.7839 129.447 24.0179 127.151 24.0179C124.855 24.0179 123.089 25.9605 123.089 28.2563C122.912 30.3755 124.855 32.1415 127.151 32.1415Z" fill="#ED1C24"/>
</svg>
